<svg width="1188" height="182" viewBox="0 0 1188 182" fill="none" xmlns="http://www.w3.org/2000/svg">
<path d="M732 0H722V181H732V0Z" fill="black"/>
<path d="M1183.47 118.815H1187.81V157.517H1182.7V127.716L1159.63 157.517H1155.3V118.815H1160.41V148.615L1183.47 118.815Z" fill="black"/>
<path d="M1140.16 118.815H1144.5V157.517H1139.39V127.716L1116.32 157.517H1111.99V118.815H1117.1V148.615L1140.16 118.815Z" fill="black"/>
<path d="M1105.76 118.815V123.769H1086.1V157.517H1081V118.815H1105.76Z" fill="black"/>
<path d="M1052.09 158.445C1040.79 158.445 1031.73 149.621 1031.73 138.165C1031.73 126.71 1040.79 117.886 1052.09 117.886C1063.39 117.886 1072.45 126.71 1072.45 138.165C1072.45 149.621 1063.39 158.445 1052.09 158.445ZM1052.09 153.491C1060.68 153.491 1067.34 146.757 1067.34 138.165C1067.34 129.574 1060.68 122.84 1052.09 122.84C1043.5 122.84 1036.84 129.574 1036.84 138.165C1036.84 146.757 1043.5 153.491 1052.09 153.491Z" fill="black"/>
<path d="M1023.23 118.815V157.517H1018.12V123.769H1000.63V141.03C1000.63 154.807 994.594 158.058 986.854 157.517V152.718C992.349 153.259 995.523 150.86 995.523 141.03V118.815H1023.23Z" fill="black"/>
<path d="M964.104 158.445C952.803 158.445 943.747 149.621 943.747 138.165C943.747 126.71 952.803 117.886 964.104 117.886C975.405 117.886 984.461 126.71 984.461 138.165C984.461 149.621 975.405 158.445 964.104 158.445ZM964.104 153.491C972.696 153.491 979.352 146.757 979.352 138.165C979.352 129.574 972.696 122.84 964.104 122.84C955.512 122.84 948.856 129.574 948.856 138.165C948.856 146.757 955.512 153.491 964.104 153.491Z" fill="black"/>
<path d="M941.842 157.517H935.727L923.652 141.571L911.578 157.517H905.463L920.634 137.469L906.469 118.815H912.584L923.652 133.444L934.721 118.815H940.836L926.749 137.469L941.842 157.517Z" fill="black"/>
<path d="M894.195 118.815H898.53V157.517H893.421V127.716L870.355 157.517H866.02V118.815H871.129V148.615L894.195 118.815Z" fill="black"/>
<path d="M841.348 158.445C829.66 158.445 820.991 149.621 820.991 138.165C820.991 126.71 829.66 117.886 841.348 117.886C849.01 117.886 855.512 121.911 858.299 128.026L854.119 130.425C852.029 125.858 847.153 122.84 841.348 122.84C832.756 122.84 826.099 129.574 826.099 138.165C826.099 146.757 832.756 153.491 841.348 153.491C847.23 153.491 851.952 150.395 854.429 145.906L858.686 148.383C855.512 154.497 848.933 158.445 841.348 158.445Z" fill="black"/>
<path d="M812.509 118.815V157.517H807.401V123.769H785.109V157.517H780V118.815H812.509Z" fill="black"/>
<path d="M974.505 37.1067C985.419 37.1067 994.475 45.9307 994.475 57.3863C994.475 68.842 985.419 77.666 974.505 77.666C967.616 77.666 962.121 74.3376 958.87 69.1516V92.2178H953.761V38.0355H958.87V45.621C962.121 40.435 967.616 37.1067 974.505 37.1067ZM974.118 72.7122C982.71 72.7122 989.367 65.9781 989.367 57.3863C989.367 48.7946 982.71 42.0605 974.118 42.0605C965.526 42.0605 958.87 48.7946 958.87 57.3863C958.87 65.9781 965.526 72.7122 974.118 72.7122Z" fill="black"/>
<path d="M947.536 38.0359V42.9897H933.835V76.7375H928.727V42.9897H915.026V38.0359H947.536Z" fill="black"/>
<path d="M903.759 38.0359H908.867V76.7375H903.759V59.8636H881.467V76.7375H876.358V38.0359H881.467V54.9098H903.759V38.0359Z" fill="black"/>
<path d="M849.036 37.1067C860.879 37.1067 868.232 46.9369 868.232 57.5411C868.232 58.3152 868.154 59.1666 868.077 59.9406H834.097C835.181 67.8358 841.296 72.7122 849.5 72.7122C855.615 72.7122 859.872 69.8482 861.962 66.1329L866.452 68.7646C863.201 74.028 857.241 77.666 849.423 77.666C837.193 77.666 828.834 69.0742 828.834 57.3863C828.834 46.0081 837.038 37.1067 849.036 37.1067ZM849.036 42.0605C840.908 42.0605 835.103 47.4013 834.097 54.9868H862.968C861.885 46.4725 855.693 42.0605 849.036 42.0605Z" fill="black"/>
<path d="M818.702 71.6288H824.507V87.1095H819.089V76.7374H780V22.5552H785.418V71.6288H813.283V22.5552H818.702V71.6288Z" fill="black"/>
<path d="M669.686 3.95812L671.602 44.5606H666.75C665.813 37.4105 664.536 32.3033 662.919 29.2389C660.28 24.3019 656.748 20.6843 652.322 18.3861C647.981 16.0027 642.235 14.811 635.085 14.811H610.698V147.088C610.698 157.728 611.847 164.368 614.145 167.007C617.38 170.582 622.359 172.369 629.084 172.369H635.085V177.093H561.668V172.369H567.797C575.117 172.369 580.31 170.156 583.374 165.73C585.247 163.006 586.183 156.792 586.183 147.088V14.811H565.371C557.285 14.811 551.539 15.4068 548.134 16.5985C543.708 18.2158 539.92 21.3227 536.77 25.9192C533.621 30.5157 531.748 36.7296 531.153 44.5606H526.301L528.344 3.95812H669.686Z" fill="black"/>
<path d="M463.992 13.4065H410.366V61.9253C410.366 110.87 406.153 142.662 397.726 157.303C389.299 171.858 377.68 179.136 362.869 179.136C356.57 179.136 351.718 177.604 348.314 174.54C344.909 171.39 343.206 167.773 343.206 163.687C343.206 160.537 344.313 157.814 346.526 155.515C348.739 153.217 351.42 152.068 354.57 152.068C357.209 152.068 360.23 153.345 363.635 155.898C367.466 158.707 370.913 160.112 373.977 160.112C381.383 160.112 387.426 153.983 392.108 141.726C396.79 129.383 399.131 106.06 399.131 71.7567V35.4953C399.131 24.0891 397.641 16.8539 394.662 13.7896C391.682 10.7252 384.83 9.0228 374.105 8.68231V3.95812H513.405V8.68231C502.68 9.0228 495.828 10.7252 492.848 13.7896C489.869 16.8539 488.379 24.0891 488.379 35.4953V145.556C488.379 156.962 489.869 164.198 492.848 167.262C495.828 170.326 502.68 172.029 513.405 172.369V177.093H438.967V172.369C449.692 172.029 456.544 170.326 459.524 167.262C462.503 164.198 463.992 156.962 463.992 145.556V13.4065Z" fill="black"/>
<path d="M147.982 0L151.94 58.8609H147.982C142.705 41.2409 135.171 28.558 125.383 20.812C115.594 13.066 103.847 9.19302 90.1427 9.19302C78.6514 9.19302 68.2667 12.1297 58.9886 18.003C49.7104 23.7912 42.3901 33.0694 37.0275 45.8374C31.75 58.6055 29.1112 74.4805 29.1112 93.4624C29.1112 109.125 31.6223 122.701 36.6444 134.193C41.6665 145.684 49.1997 154.494 59.2439 160.623C69.3733 166.751 80.9071 169.816 93.8455 169.816C105.081 169.816 114.998 167.432 123.595 162.665C132.192 157.814 141.641 148.238 151.94 133.937L155.898 136.491C147.216 151.898 137.087 163.176 125.51 170.326C113.934 177.476 100.187 181.052 84.2694 181.052C55.5837 181.052 33.3673 170.411 17.62 149.131C5.87332 133.299 0 114.657 0 93.2071C0 75.9276 3.87299 60.0526 11.619 45.5821C19.3649 31.1116 30.005 19.9182 43.5392 12.002C57.1585 4.00067 72.012 0 88.0998 0C100.613 0 112.955 3.06434 125.127 9.19302C128.702 11.0657 131.256 12.002 132.788 12.002C135.086 12.002 137.087 11.1934 138.789 9.57607C141.002 7.27781 142.577 4.08579 143.513 0H147.982Z" fill="black"/>
<path fill-rule="evenodd" clip-rule="evenodd" d="M318.947 25.6639C302.519 8.55462 283.069 0 260.597 0C237.955 0 218.505 7.53317 202.247 22.5995C183.52 39.9641 174.157 62.3934 174.157 89.8874C174.157 116.785 182.243 138.704 198.416 155.643C214.674 172.582 234.72 181.052 258.554 181.052C282.132 181.052 302.221 172.369 318.819 155.005C335.418 137.64 343.717 115.807 343.717 89.5043C343.717 63.9681 335.46 42.688 318.947 25.6639ZM258.171 9.32071C242.679 9.32071 230.251 15.0663 220.888 26.5576C220.838 26.6192 220.539 26.988 220.702 26.7881C221.345 25.998 222.005 25.2357 222.677 24.5C227.464 23.6105 232.096 24.0755 235.879 29.124C266.801 40.3323 266.024 61.8185 265.47 65.7061C264.749 63.7648 262.629 61.4873 262.607 61.4639C264.869 65.9056 265.99 72.394 265.392 80.2334C266.353 85.2299 265.581 88.7648 264.524 92.4209C265.186 92.592 266.588 92.8018 267.503 91.8457L267.717 91.9424C267.714 91.9504 267.674 92.0562 267.605 92.2344C267.58 92.3175 267.527 92.4005 267.467 92.496C267.455 92.5148 267.443 92.5339 267.43 92.5537C267.36 92.6814 267.254 92.7988 267.133 92.9277C266.654 93.4602 265.787 93.879 264.876 94.0801C264.587 94.1383 264.292 94.1769 264 94.1973C263.85 94.7017 263.699 95.2123 263.55 95.7344C262.206 100.463 266.75 108.915 268.605 112.365C268.713 112.567 268.816 112.759 268.905 112.925C268.956 113.021 269.006 113.115 269.057 113.209C269.097 113.285 269.138 113.36 269.178 113.435C270.633 116.151 271.65 118.048 270.33 119.886C268.929 121.836 264.48 123.387 262.55 123.999C261.092 125.447 261.612 127.805 262.279 129.253C262.946 130.701 261.807 132.748 258.536 133.648C260.841 136.302 259.526 139.005 257.814 139.338C255.456 139.492 254.12 140.924 254.569 142.653C255.018 144.383 254.835 146.06 252.607 149.509C247.925 155.544 236.945 151.381 233.847 149.458C233.086 148.985 232.328 148.481 231.599 147.996C229.362 146.508 227.392 145.196 226.39 145.508C226.158 146.082 225.853 146.744 225.523 147.462C224.229 150.272 222.538 153.945 223.231 156.646C232.289 166.873 243.978 171.986 258.298 171.986C274.556 171.986 287.963 165.645 298.518 152.962C309.158 140.279 314.478 120.275 314.478 92.9517C314.478 63.3297 308.647 41.2409 296.986 26.6853C287.622 15.1089 274.684 9.32071 258.171 9.32071Z" fill="black"/>
</svg>
