<svg width="1151" height="181" viewBox="0 0 1151 181" fill="none" xmlns="http://www.w3.org/2000/svg">
<g clip-path="url(#clip0_2002_2)">
<path d="M591.71 176.769H512.394V170.422C522.954 170.422 530.228 169.012 533.983 165.956C537.738 162.9 539.615 155.613 539.615 143.86V29.6182C539.615 25.1519 537.738 21.1558 534.452 17.6299C531.167 14.3389 527.178 12.4584 522.719 12.4584H515.679C503.242 12.6935 494.794 13.3987 490.57 14.574C486.346 15.7493 483.061 17.8649 481.184 21.1558C476.725 28.913 473.674 37.1402 471.797 45.6026H466.165C467.104 31.7337 468.043 17.8649 468.747 3.99609H634.419C634.888 17.8649 635.592 31.7337 637 45.6026H631.368C629.491 35.2597 626.675 27.5026 622.92 21.861C619.166 16.2195 612.126 13.1636 601.566 12.6935C595.934 12.6935 588.894 12.4584 580.446 12.4584C575.753 12.4584 571.764 14.3389 568.478 17.6299C565.193 20.9208 563.55 24.9169 563.55 29.6182V143.86C563.55 149.971 563.785 154.673 564.724 158.199C565.662 161.96 567.54 164.545 570.59 166.426C573.641 168.306 578.569 169.482 585.139 169.952L591.71 170.422V176.769Z" fill="black"/>
<path d="M464.587 176.769H327.074V170.422C337.869 170.422 345.143 168.777 348.663 165.486C352.183 162.43 354.061 155.143 354.061 143.39V38.5506C354.061 31.2636 353.591 25.6221 352.887 21.861C351.949 18.1 349.837 15.5143 346.551 13.8688C343.266 12.4584 337.869 11.2831 330.594 10.813V3.99609H401.228V10.813C392.545 11.048 386.444 12.4584 383.159 14.8091C379.639 17.3948 377.996 23.5065 377.996 33.1441V158.904C377.996 161.49 378.7 163.605 380.578 165.486C382.455 167.366 384.567 168.306 387.148 168.306H420.001C433.377 168.306 444.406 165.721 452.854 160.314C461.302 155.143 467.872 146.21 473.035 133.752L480.075 134.692L464.587 176.769Z" fill="black"/>
<path d="M49.2793 181C36.3728 181 23.9356 177.944 11.9678 171.832C11.0292 171.597 10.0905 171.362 9.38653 171.362C7.97855 171.362 6.57057 172.068 5.16259 173.008C3.75461 174.183 2.5813 176.064 2.11197 178.414H0V132.342L5.63192 132.106C8.9172 150.442 19.2424 162.9 36.6075 169.482C41.3007 171.362 45.994 172.303 50.6873 172.303C60.7778 172.303 68.991 169.717 75.5616 164.31C81.8975 159.139 85.1827 150.912 85.1827 140.099C85.1827 134.222 83.7748 129.051 81.4281 124.819C78.8468 120.588 75.5616 117.062 71.5723 113.771C67.583 110.716 63.1244 107.895 58.4311 105.309C53.7379 102.723 49.0446 100.373 44.8207 98.2571C40.3621 96.1416 36.3728 94.026 32.8528 91.9104C24.1703 87.2091 16.8958 81.3325 11.0292 74.2805C4.92793 67.2286 2.11197 58.5312 2.11197 48.1883C2.11197 38.7857 4.4586 30.5584 9.38653 23.5065C14.3145 16.4545 20.885 10.813 29.3329 6.58182C37.7808 2.35065 48.106 0 60.5431 0C70.6336 0 80.0201 2.11559 88.468 6.11169C89.172 6.58182 90.1107 6.81688 91.5186 6.81688C91.988 6.81688 92.9266 6.81688 94.3346 6.58182C95.7426 6.34676 96.9159 5.17143 98.3239 2.82078L100.201 3.05585V44.4273H93.8653C87.9987 19.9805 75.3269 7.75714 56.0845 7.75714C47.1673 7.75714 39.6581 10.5779 33.5568 15.7493C27.2209 21.1558 24.1703 28.4429 24.1703 37.6104C24.1703 51.9494 33.0875 63.7026 51.3912 72.6351L67.1137 80.3922C74.1536 83.9182 80.9588 87.6792 87.2947 91.9104C93.6306 96.1416 98.7932 101.078 103.017 107.19C107.006 113.301 109.118 120.823 109.118 129.991C109.118 140.099 106.302 148.796 100.905 156.318C95.5079 163.84 88.468 169.952 79.5508 174.183C69.695 178.884 59.6045 181 49.2793 181Z" fill="black"/>
<path fill-rule="evenodd" clip-rule="evenodd" d="M225.469 0.235352C250.343 0.235352 271.229 8.6978 287.89 25.1523C304.316 41.6068 312.764 62.5279 312.764 87.6797C312.764 105.309 309.009 121.058 301.5 135.162C293.991 149.266 283.666 160.55 270.524 168.542C257.149 176.769 241.426 180.765 223.592 180.765C198.952 180.765 178.302 172.538 161.641 155.613C144.98 138.924 136.767 118.238 136.767 93.3213C136.767 76.1615 140.287 60.4115 147.796 46.3076C155.305 32.2039 165.63 21.1556 179.006 12.6934C192.382 4.46621 207.869 0.235382 225.469 0.235352ZM223.122 8.22754C209.584 8.2276 197.783 13.2274 187.716 23.0156C193.015 21.8781 198.185 22.0556 202.358 27.5107C234.371 38.8785 233.566 60.6711 232.993 64.6133C232.243 62.6342 230.028 60.3105 230.028 60.3105C232.37 64.8154 233.531 71.3958 232.912 79.3467C233.907 84.4144 233.107 87.9998 232.013 91.708C232.698 91.8816 234.15 92.094 235.098 91.124L235.319 91.2227C235.316 91.2308 235.274 91.3378 235.203 91.5186C235.172 91.6194 235.1 91.7194 235.022 91.8418C234.949 91.9716 234.839 92.0907 234.714 92.2217C234.218 92.7617 233.321 93.1867 232.378 93.3906C232.078 93.4497 231.773 93.4881 231.471 93.5088C231.315 94.0206 231.159 94.5387 231.005 95.0684C229.531 100.149 234.897 109.467 236.548 112.503C238.199 115.539 239.474 117.585 238.023 119.563C236.573 121.541 231.968 123.113 229.97 123.734C228.46 125.203 228.999 127.594 229.689 129.063C230.38 130.532 229.2 132.608 225.813 133.521C228.2 136.212 226.839 138.954 225.066 139.291C222.625 139.447 221.242 140.9 221.707 142.654C222.172 144.408 221.983 146.109 219.676 149.607C214.829 155.728 203.461 151.505 200.254 149.555C197.048 147.605 193.909 145.13 192.534 145.549C191.169 148.858 190.123 151.399 189.329 154.68C188.96 156.798 189.467 157.784 190.233 158.55C190.397 158.701 190.561 158.85 190.726 158.999C191.117 159.328 191.536 159.651 191.926 160.054C201.852 168.532 213.61 172.772 227.111 172.772C232.978 172.772 238.611 171.832 244.008 169.717C254.802 165.486 263.249 158.669 269.351 149.736C275.452 140.804 279.441 130.696 281.788 119.413C284.135 108.365 285.308 97.5518 285.308 87.209C285.308 74.0455 283.43 62.5276 279.676 52.4199C274.983 39.7266 267.943 29.3832 258.322 20.9209C248.466 12.4586 236.733 8.22754 223.122 8.22754Z" fill="black"/>
<path d="M695 0H685V181H695V0Z" fill="black"/>
<path d="M1146.47 118.815H1150.81V157.517H1145.7V127.716L1122.63 157.517H1118.3V118.815H1123.41V148.615L1146.47 118.815Z" fill="black"/>
<path d="M1103.16 118.815H1107.5V157.517H1102.39V127.716L1079.32 157.517H1074.99V118.815H1080.1V148.615L1103.16 118.815Z" fill="black"/>
<path d="M1068.76 118.815V123.769H1049.1V157.517H1044V118.815H1068.76Z" fill="black"/>
<path d="M1015.09 158.445C1003.79 158.445 994.733 149.621 994.733 138.165C994.733 126.71 1003.79 117.886 1015.09 117.886C1026.39 117.886 1035.45 126.71 1035.45 138.165C1035.45 149.621 1026.39 158.445 1015.09 158.445ZM1015.09 153.491C1023.68 153.491 1030.34 146.757 1030.34 138.165C1030.34 129.574 1023.68 122.84 1015.09 122.84C1006.5 122.84 999.841 129.574 999.841 138.165C999.841 146.757 1006.5 153.491 1015.09 153.491Z" fill="black"/>
<path d="M986.233 118.815V157.517H981.125V123.769H963.632V141.03C963.632 154.807 957.594 158.058 949.854 157.517V152.718C955.349 153.259 958.523 150.86 958.523 141.03V118.815H986.233Z" fill="black"/>
<path d="M927.104 158.445C915.803 158.445 906.747 149.621 906.747 138.165C906.747 126.71 915.803 117.886 927.104 117.886C938.405 117.886 947.461 126.71 947.461 138.165C947.461 149.621 938.405 158.445 927.104 158.445ZM927.104 153.491C935.696 153.491 942.352 146.757 942.352 138.165C942.352 129.574 935.696 122.84 927.104 122.84C918.512 122.84 911.856 129.574 911.856 138.165C911.856 146.757 918.512 153.491 927.104 153.491Z" fill="black"/>
<path d="M904.842 157.517H898.727L886.652 141.571L874.578 157.517H868.463L883.634 137.469L869.469 118.815H875.584L886.652 133.444L897.721 118.815H903.836L889.749 137.469L904.842 157.517Z" fill="black"/>
<path d="M857.195 118.815H861.53V157.517H856.421V127.716L833.355 157.517H829.02V118.815H834.129V148.615L857.195 118.815Z" fill="black"/>
<path d="M804.348 158.445C792.66 158.445 783.991 149.621 783.991 138.165C783.991 126.71 792.66 117.886 804.348 117.886C812.01 117.886 818.512 121.911 821.299 128.026L817.119 130.425C815.029 125.858 810.153 122.84 804.348 122.84C795.756 122.84 789.099 129.574 789.099 138.165C789.099 146.757 795.756 153.491 804.348 153.491C810.23 153.491 814.952 150.395 817.429 145.906L821.686 148.383C818.512 154.497 811.933 158.445 804.348 158.445Z" fill="black"/>
<path d="M775.509 118.815V157.517H770.401V123.769H748.109V157.517H743V118.815H775.509Z" fill="black"/>
<path d="M937.505 37.1067C948.419 37.1067 957.475 45.9307 957.475 57.3863C957.475 68.842 948.419 77.666 937.505 77.666C930.616 77.666 925.121 74.3376 921.87 69.1516V92.2178H916.761V38.0355H921.87V45.621C925.121 40.435 930.616 37.1067 937.505 37.1067ZM937.118 72.7122C945.71 72.7122 952.367 65.9781 952.367 57.3863C952.367 48.7946 945.71 42.0605 937.118 42.0605C928.526 42.0605 921.87 48.7946 921.87 57.3863C921.87 65.9781 928.526 72.7122 937.118 72.7122Z" fill="black"/>
<path d="M910.536 38.0359V42.9897H896.835V76.7375H891.727V42.9897H878.026V38.0359H910.536Z" fill="black"/>
<path d="M866.759 38.0359H871.867V76.7375H866.759V59.8636H844.467V76.7375H839.358V38.0359H844.467V54.9098H866.759V38.0359Z" fill="black"/>
<path d="M812.036 37.1067C823.879 37.1067 831.232 46.9369 831.232 57.5411C831.232 58.3152 831.154 59.1666 831.077 59.9406H797.097C798.181 67.8358 804.296 72.7122 812.5 72.7122C818.615 72.7122 822.872 69.8482 824.962 66.1329L829.452 68.7646C826.201 74.028 820.241 77.666 812.423 77.666C800.193 77.666 791.834 69.0742 791.834 57.3863C791.834 46.0081 800.038 37.1067 812.036 37.1067ZM812.036 42.0605C803.908 42.0605 798.103 47.4013 797.097 54.9868H825.968C824.885 46.4725 818.693 42.0605 812.036 42.0605Z" fill="black"/>
<path d="M781.702 71.6288H787.507V87.1095H782.089V76.7374H743V22.5552H748.418V71.6288H776.283V22.5552H781.702V71.6288Z" fill="black"/>
</g>
<defs>
<clipPath id="clip0_2002_2">
<rect width="1151" height="181" fill="white"/>
</clipPath>
</defs>
</svg>
